{
  "asset": {
    "generator": "Khronos glTF Blender I/O v1.8.19",
    "version": "2.0"
  },
  "scene": 0,
  "scenes": [
    {
      "name": "Scene",
      "nodes": [0, 1, 2]
    }
  ],
  "nodes": [
    {
      "mesh": 0,
      "name": "Torus",
      "rotation": [
        -0.6735679507255554, -0.31676533818244934, -0.20188584923744202,
        0.6365595459938049
      ],
      "scale": [7.0870466232299805, 7.0870466232299805, 7.0870466232299805],
      "translation": [-5.763481140136719, 29.246295928955078, 0]
    },
    {
      "mesh": 1,
      "name": "Sphere",
      "scale": [
        0.028130633756518364, 0.028130633756518364, 0.028130633756518364
      ],
      "translation": [0, -4.209315299987793, 0]
    },
    {
      "mesh": 2,
      "name": "Sphere.001",
      "scale": [0.4060943126678467, 0.4060943126678467, 0.4060943126678467],
      "translation": [0, 0.4154953956604004, 0]
    }
  ],
  "materials": [
    {
      "doubleSided": true,
      "name": "glass",
      "pbrMetallicRoughness": {}
    },
    {
      "doubleSided": true,
      "name": "base",
      "pbrMetallicRoughness": {
        "baseColorFactor": [
          0.800000011920929, 0.800000011920929, 0.800000011920929, 1
        ],
        "roughnessFactor": 0.5
      }
    },
    {
      "doubleSided": true,
      "name": "wood",
      "pbrMetallicRoughness": {
        "baseColorFactor": [
          0.18446944653987885, 0.06397286802530289, 0.024735787883400917, 1
        ],
        "metallicFactor": 0,
        "roughnessFactor": 0.5
      }
    },
    {
      "doubleSided": true,
      "name": "Material",
      "pbrMetallicRoughness": {}
    }
  ],
  "meshes": [
    {
      "name": "Torus",
      "primitives": [
        {
          "attributes": {
            "POSITION": 0,
            "NORMAL": 1,
            "TEXCOORD_0": 2
          },
          "indices": 3,
          "material": 0
        },
        {
          "attributes": {
            "POSITION": 4,
            "NORMAL": 5,
            "TEXCOORD_0": 6
          },
          "indices": 7,
          "material": 1
        },
        {
          "attributes": {
            "POSITION": 8,
            "NORMAL": 9,
            "TEXCOORD_0": 10
          },
          "indices": 11,
          "material": 2
        }
      ]
    },
    {
      "name": "Sphere",
      "primitives": [
        {
          "attributes": {
            "POSITION": 12,
            "NORMAL": 13,
            "TEXCOORD_0": 14
          },
          "indices": 15,
          "material": 3
        }
      ]
    },
    {
      "name": "Sphere.001",
      "primitives": [
        {
          "attributes": {
            "POSITION": 16,
            "NORMAL": 17,
            "TEXCOORD_0": 18
          },
          "indices": 15,
          "material": 3
        }
      ]
    }
  ],
  "accessors": [
    {
      "bufferView": 0,
      "componentType": 5126,
      "count": 96,
      "max": [0.7834936380386353, 0.125, 0.7834936380386353],
      "min": [-0.7834936380386353, 3.0616171314629196e-17, -0.7834936380386353],
      "type": "VEC3"
    },
    {
      "bufferView": 1,
      "componentType": 5126,
      "count": 96,
      "type": "VEC3"
    },
    {
      "bufferView": 2,
      "componentType": 5126,
      "count": 96,
      "type": "VEC2"
    },
    {
      "bufferView": 3,
      "componentType": 5123,
      "count": 276,
      "type": "SCALAR"
    },
    {
      "bufferView": 4,
      "componentType": 5126,
      "count": 645,
      "max": [1.25, 0.25, 1.25],
      "min": [-1.25, -0.25, -1.606907606124878],
      "type": "VEC3"
    },
    {
      "bufferView": 5,
      "componentType": 5126,
      "count": 645,
      "type": "VEC3"
    },
    {
      "bufferView": 6,
      "componentType": 5126,
      "count": 645,
      "type": "VEC2"
    },
    {
      "bufferView": 7,
      "componentType": 5123,
      "count": 3486,
      "type": "SCALAR"
    },
    {
      "bufferView": 8,
      "componentType": 5126,
      "count": 16,
      "max": [0.3235238492488861, 0.125, -1.531962513923645],
      "min": [-0.16315791010856628, 0, -4.106833457946777],
      "type": "VEC3"
    },
    {
      "bufferView": 9,
      "componentType": 5126,
      "count": 16,
      "type": "VEC3"
    },
    {
      "bufferView": 10,
      "componentType": 5126,
      "count": 16,
      "type": "VEC2"
    },
    {
      "bufferView": 11,
      "componentType": 5123,
      "count": 66,
      "type": "SCALAR"
    },
    {
      "bufferView": 12,
      "componentType": 5126,
      "count": 220,
      "max": [0.9510564208030701, 1, 0.9999998211860657],
      "min": [-0.9510564208030701, -1, -0.9999999403953552],
      "type": "VEC3"
    },
    {
      "bufferView": 13,
      "componentType": 5126,
      "count": 220,
      "type": "VEC3"
    },
    {
      "bufferView": 14,
      "componentType": 5126,
      "count": 220,
      "type": "VEC2"
    },
    {
      "bufferView": 15,
      "componentType": 5123,
      "count": 300,
      "type": "SCALAR"
    },
    {
      "bufferView": 16,
      "componentType": 5126,
      "count": 220,
      "max": [0.9510564208030701, 1, 0.9999998211860657],
      "min": [-0.9510564208030701, -1, -0.9999999403953552],
      "type": "VEC3"
    },
    {
      "bufferView": 17,
      "componentType": 5126,
      "count": 220,
      "type": "VEC3"
    },
    {
      "bufferView": 18,
      "componentType": 5126,
      "count": 220,
      "type": "VEC2"
    }
  ],
  "bufferViews": [
    {
      "buffer": 0,
      "byteLength": 1152,
      "byteOffset": 0
    },
    {
      "buffer": 0,
      "byteLength": 1152,
      "byteOffset": 1152
    },
    {
      "buffer": 0,
      "byteLength": 768,
      "byteOffset": 2304
    },
    {
      "buffer": 0,
      "byteLength": 552,
      "byteOffset": 3072
    },
    {
      "buffer": 0,
      "byteLength": 7740,
      "byteOffset": 3624
    },
    {
      "buffer": 0,
      "byteLength": 7740,
      "byteOffset": 11364
    },
    {
      "buffer": 0,
      "byteLength": 5160,
      "byteOffset": 19104
    },
    {
      "buffer": 0,
      "byteLength": 6972,
      "byteOffset": 24264
    },
    {
      "buffer": 0,
      "byteLength": 192,
      "byteOffset": 31236
    },
    {
      "buffer": 0,
      "byteLength": 192,
      "byteOffset": 31428
    },
    {
      "buffer": 0,
      "byteLength": 128,
      "byteOffset": 31620
    },
    {
      "buffer": 0,
      "byteLength": 132,
      "byteOffset": 31748
    },
    {
      "buffer": 0,
      "byteLength": 2640,
      "byteOffset": 31880
    },
    {
      "buffer": 0,
      "byteLength": 2640,
      "byteOffset": 34520
    },
    {
      "buffer": 0,
      "byteLength": 1760,
      "byteOffset": 37160
    },
    {
      "buffer": 0,
      "byteLength": 600,
      "byteOffset": 38920
    },
    {
      "buffer": 0,
      "byteLength": 2640,
      "byteOffset": 39520
    },
    {
      "buffer": 0,
      "byteLength": 2640,
      "byteOffset": 42160
    },
    {
      "buffer": 0,
      "byteLength": 1760,
      "byteOffset": 44800
    }
  ],
  "buffers": [
    {
      "byteLength": 46560,
      "uri": "data:application/octet-stream;base64,"
    }
  ]
}
